<?xml version="1.0" encoding="UTF-8"?>
<svg version="1.1" viewBox="0 0 2000 2000" width="500" height="500" xmlns="http://www.w3.org/2000/svg">
<path transform="translate(1495,170)" d="m0 0 4 1 5 13 6 23 4 22 1 23-2 19-6 25-6 16-2 7 8-1h32l27 4 18 5 2 3-7 16-9 17-8 12-11 13-16 16-7 6 1 4 14 14 8 7 12 12 15 20 11 18 8 17 11 33 5 22 3 24v43l-2 20-7 29-8 21-10 18-12 17-9 10-7 8-17 17-3 4-2 18-2 15-4 16-8 25-1 15 2 14 9 25 14 29 19 39 11 24 6 16 2 10v9l-2 13-4 8-8 10-9 8-10 6-24 9-7 2v9l4 9 6 9 4 10v9l-3 8-5 7-8 7-4 6 1 9 2 9v17l-6 12-10 10-9 6-5 4-1 8 4 20 4 17v8l-3 15-5 13-6 10-10 12-13 9-16 6-14 3-8 1h-40l-2 3v15l2 14 5 16 6 11 9 12 7 7 7 8 14 12 11 9 7 7 8 7 5 4v2l3 1 7 8 10 13 9 14 8 16 5 15 5 24 2 16v25l-4 23-6 18-11 21-7 9-9 10-7 7-11 9-14 12-11 9-9 9-7 9-3 10v22l3 9 6 7 9 6 13 4 9 1 16-4 10-5 10-6 3 1-4 10-5 9-8 11-5 5-7 6-14 7-12 3-7 1h-18l-14-3-15-6-14-8-9-7-10-9-10-13-9-16-10-24-3-1-9 16-12 16-9 10-7 7-14 11-14 10-19 10-21 8-22 6-26 4-10 1h-32l-33-4-24-5-24-7-17-6-26-11-22-12-15-10-16-12-7-7-8-7-14-13-5-6v-2l-6-1-8 27-8 16-6 10-9 11-10 10-16 11-15 7-18 6-10 2-10 1h-25l-19-3-17-6-15-8-11-9-9-10-10-17-6-15-5-14-10 1-7 1h-34l-17-3-23-7-16-8-11-7-6-4-6-2-3 9-6 20-5 12-7 9-4 5-13 9-16 6-13 3h-26l-17-4-19-8-34-17-24-14-11-9-10-9-10-12-8-13-6-17-3-15-1-9v-23l1-11-13 2h-14l-19-3-17-7-13-9-9-10-8-14-5-16-1-6v-20h4l8 17 7 9 7 6 12 5 4 1h14l12-5 8-6 6-8 4-11 1-16-2-11-6-11-7-9-12-13-18-22-10-15-8-16-6-20-2-12-1-11v-17l3-20 5-17 8-17 10-16 9-11 9-10 36-36 9-12 7-14 3-11v-22l-5-21-15-52-5-21-3-17v-30l4-19 6-20 9-21 8-14 8-12 10-13 9-10 12-12 13-10 17-12 15-10 25-16 19-14 13-12 8-7 10-13 1-3-19-7-23-11-12-9-10-9-8-9-10-15-10-19-9-24-1-6 6-2 19-3 13-1h13l11 1-7-19-6-25-2-18v-15l2-18 5-26 7-24 3-1 14 8 11 7 10 8 14 12 8 8 11 14 7 11 4 6 2-2 7-49 6-32 8-31 10-29 10-25 8-18 13-24 12-20 12-18 9-12 10-13 12-14 16-17 9-10 15-13 11-9 15-12 33-22 15-9 24-13 22-10 30-11 28-8 40-9 32-5 18-2 16-1h59l28 2 30 4 36 8 35 10 17 6h6l17-10 10-6 3 3 9 27 6 23 2 6 5-3 7-8 10-10 17-13 15-9 18-8 25-6 4 1 5 41 2 8 5-3 16-13 18-11 17-8 10-1 8-16 8-12 12-14 8-8 8-7 17-12 20-12zm-14 35-17 12-10 9v2l-3 1-7 8-10 14-8 15-5 14-4 22-1 8v26l2 12v8l-8 14-11 13-7 8-7 6v2l-4 2-16 13-18 12-17 10-23 11-27 11-41 14-56 15-45 13-26 8-28 10-20 8-40 18-30 15-41 24-51 34-19 14-21 16-19 14-13 10-19 14-17 12-18 12-16 10-17 10-21 12-24 13-26 12-24 9-36 12-29 8-30 6-24 3-6 2 3 9 5 10 1 1h11l30-5 40-9 29-9 28-11 30-13 29-14 31-16 26-16 39-26 19-13 19-14 17-13 16-12 13-10 14-10 10-7 38-24 28-17 40-21 16-8 39-16 48-17 26-8 38-11 52-17 33-12 20-9 22-12 15-9 15-10 14-11 16-15 10-10 10-13 8-13 10-19 16-14 12-12 12-16 9-17 6-18 3-16 1-8v-19l-4-25-2-6zm-178 72-16 8-13 9-14 12-13 16-11 17-8 17-6 22-3 16-1 7v28l3 16 3 9 4-2 9-19 7-15 12-26 6-15 2-4-1 8-8 31-7 20-10 23v2l6-1 13-10 11-9 9-10 8-11 10-18 6-13 5-16 5-26v-32l-4-32-1-2zm-112 5-11 7-13 12-11 13-10 15-11 21-5 17-5 23-1 9v17l3 25 6 26 5 12 5 1 4-10 9-34 6-30 4-16 1-1v17l-5 40-6 27-1 5 3 1 8-7 8-9 11-16 11-21 6-16 5-26 1-8v-31l-3-24-5-21-6-18zm192 10-10 6-10 8-12 12-10 16-6 12-7 20-3 23v12l2 19 4 1 18-11 10-8 10-9 11-16 5-12 5-19 1-8v-24l-3-20-1-2zm-301 34-6 4-12 11-13 13-13 17-9 15-9 19-5 14-6 30-1 13v19l2 19 5 27 4 1 4-5 6-15 14-38 8-23 4-12 1 1-5 30-9 37-7 22 2 1 7-4 10-9 9-9 10-13 9-15 6-12 6-18 5-22 1-5 1-23-2-20-6-28-6-20-2-2zm426 16-17 3-15 5-19 10-10 8-12 11-11 14-5 7v5l7 3 12 2h22l23-4 16-7 12-7 10-8 10-9 9-10 12-18-1-4-9-1zm-541 53-9 7-13 12-14 14-12 16-10 17-8 18-6 20-4 22v34l7 34 3 3 4-5 11-24 11-30 8-23 2-6v-4h2l-3 23-4 17-9 30-6 19 7-1 11-9 13-13 10-13 11-18 8-19 5-21 2-14v-26l-3-23-5-25-4-12zm448 44-21 3-21 6-14 6-19 11-11 8-7 6 4 4 27 11 14 4 17 2h19l15-2 15-5 23-11 16-11 12-9 5-5-2-4-18-7-25-5-17-2zm-563 46-11 7-13 11-13 12-12 13-11 15-11 19-7 17-7 24-2 11-1 13v22l2 25 2 11 4 1 4-5 13-25 11-26 15-38-3 18-6 23-8 24-10 24-1 7 6-2 11-9 10-9 8-7 7-8 9-12 10-17 5-11 7-21 3-20v-45l-5-29-4-13zm404 21-21 3-26 8-17 8v4l5 2 35 6 33 6 14 4-31-1-36-3-22-3h-6l1 5 9 8 17 11 15 8 21 8 21 5 8 1h31l18-3 22-6 19-8 15-9 2-2-1-5-9-8-15-10-15-9-24-11-21-6-12-2-12-1zm-149 60-24 2-18 4-16 6-14 7 1 3 47 7 20 5 18 6 8 3-14-1-25-4-26-3-16-1h-13l-8 2-2 1 2 4 11 10 16 10 16 9 14 7 19 7 21 5 7 1h30l26-4 23-6 18-7 15-7 4-2-1-5-4-2v-2l-14-11-10-7-21-13-15-8-15-6-19-6-18-3zm-377 8-8 4-12 9-20 18-7 8-8 9-11 17-9 19-7 21-4 22v34l2 16 3 4 4-2 10-19 8-17 7-15 10-21 3-8 1 2-7 25-9 25-11 24-2 5v4l6-2 14-10 8-8 8-7 9-11 10-14 8-16 6-18 4-19 2-21v-13l-4-36-3-9zm730 9-7 8-11 14-9 10-5 5-2 4-4 2-13 12-18 13-13 8-22 12-31 15-20 9-18 10-17 12-16 15-14 14-11 14-8 11-12 17-20 30-7 9-9 11-12 14-8 8v2l-4 2-12 12-11 9-16 12-21 12-22 11-38 14-15 5-5 4-1 14 2 11 6 12 8 10 3 5 1 8-4 8-5 3h-9l-5-3-10-11-14-9-15-10-8-8-3-7-3-18-16 4-17 5-8 4v11l3 15 7 14 11 14 9 11 11 12 12 12 11 9 13 10 14 7 13 3h7l13-4 14-8 2 23 5 27 8 27 11 23 12 19 12 16 6 7 11 9 12 9 15 10 21 13 23 12 27 12 26 10 41 13 36 9 32 6 30 4 21 2h21l18-4 10-5 9-8 7-11 3-7 1-5v-23l-3-16-3-12v-24l4-6 17-1 9-4 6-7 1-4v-7l-3-8-7-8-10-5h-10l-34 6-16 1-7-3-2-2 1-5 10-4 15-4 13-5 12-6 16-9 10-5 8-2h14l-1-7-5-15-1-13 3-9 4-6 8-7 27-13 9-8 4-9 1-6-2-13-6-16-13-27-8-16-10-21-12-29-8-24-3-12-1-15 4-20 8-26 3-16 1-10v-14l-4-31-8-37-18-61-8-26-8-20-3-5zm-853 48-10 9-7 8-9 9-12 17-10 19-5 15-3 15-1 14v14l2 19 4 18 1 2h5l11-9 10-10 10-13 7-10 8-16 5-13 4-15 2-18-1-24-4-22-3-9zm-145 2-3 8-3 22v18l3 19 7 21 8 16 7 11 11 12 7 7 11 9 7 5 3-1 2-9 1-9v-33l-3-18-6-18-10-19-9-12-12-13-10-9-10-7zm526 6-17 1-22 4-20 6-19 9-4 3v2l5 2 36 3 33 6 18 6-37-3h-59l-7 2 3 5 11 9 21 12 24 11 20 6 15 3 8 1h29l20-3 24-6 22-9 15-7 11-7-5-6-16-12-16-10-19-10-22-9-27-7-20-2zm-128 82-21 3-16 4-24 10-2 3 10 2 18 2 31 6 22 6v1l-47-4-32-1-9 1-1 4 15 11 21 13 18 8 20 6 22 3h23l21-3 25-7 25-10 9-5-1-4-5-5-13-10-21-13-16-8-15-6-15-4-21-3zm-438 38-5 2 2 10 6 11 8 11 9 10 14 10 16 8 20 6 13 2h14l1-5-8-17-8-12-7-8-14-11-13-8-13-5-15-3-10-1zm298 28-17 2-21 6-4 2v2l8 3 28 7 18 6 16 7-25-5-37-7-8-1h-9v6l12 12 14 10 16 9 13 6 18 6 19 3h26l19-3 28-7 9-4-1-6-9-9-8-7-17-13-15-9-14-7-17-6-11-2-12-1zm-139 40-13 2-1 5 8 15 9 12 5 6 16 14 15 9 11 5 12 4 24 4 14 1h10l4-2-1-6-9-16-13-17-13-13-14-9-12-6-21-6-18-2zm426 278 1 14 10 54 3 35 2 39 3 21 6 20 8 15 8 10 4 2v2l15 11 15 10 19 11 14 10 12 10 9 11 8 11 9 20 5 20 1 8v23l-2 18-6 20-10 23-7 16-4 15-2 17v11l2 12 8 16 7 9 9 8 9 5h2v-5l-7-10-5-10-4-14-1-20 2-21 5-18 11-26 9-16 9-15 8-17 6-18 4-19 1-10v-22l-4-24-4-14-8-17-10-15-11-14-9-10-4-5-8-7-14-13-11-9-15-13-10-9-20-20-9-12-9-14-8-16-8-21-6-23-3-14-2-12-4-4z" fill="#D24F6E"/>
<path transform="translate(1375,745)" d="m0 0h25l19 3 18 5 18 8 11 7 7 7 2 4v10l-5 8-3 2h-9l-40-20-14-5-16-3h-27l-18 3-16 5-38 14-21 7-8 2h-5l1-5 8-7 20-13 22-12 18-8 21-7 21-4z" fill="#D24F6E"/>
<path transform="translate(1427,837)" d="m0 0 2 2 2 13 1 25 3 12 4 8 5 5 8 4 8 3v4l-8 3-10 2h-11l-26-2-35-1-14-2-17-5-21-10-12-8-11-9-10-9-8-10 3-1 38 14 19 6 18 4 14 2h15l18-3 11-4 4-5 2-4 4-22 3-11z" fill="#D24F6E"/>
<path transform="translate(1456,1029)" d="m0 0 4 1 4 10 6 5h7l19-9 9-3h16l6 3-1 4-16 8-18 7-13 4h-15l-6-3-5-6-2-7 1-9z" fill="#D24F6E"/>
<path transform="translate(1132,610)" d="m0 0 2 1z" fill="#D24F6E"/>
</svg>
